<?xml version="1.0" standalone="no"?>
<!DOCTYPE svg PUBLIC "-//W3C//DTD SVG 20010904//EN"
 "http://www.w3.org/TR/2001/REC-SVG-20010904/DTD/svg10.dtd">
<svg version="1.0" xmlns="http://www.w3.org/2000/svg"
 width="512.000000pt" height="512.000000pt" viewBox="0 0 512.000000 512.000000"
 preserveAspectRatio="xMidYMid meet">
<metadata>
Created by potrace 1.16, written by Peter Selinger 2001-2019
</metadata>
<g transform="translate(0.000000,512.000000) scale(0.100000,-0.100000)"
fill="#000000" stroke="none">
<path d="M785 4107 c-68 -23 -98 -43 -158 -106 -55 -58 -134 -198 -152 -272
-6 -25 -6 -25 87 -38 206 -27 376 -109 518 -251 67 -66 95 -103 125 -165 22
-44 41 -82 43 -84 6 -12 11 13 22 107 21 195 -18 427 -98 575 -98 182 -255
277 -387 234z"/>
</g>
</svg>
